<?xml version="1.0" encoding="iso-8859-1"?>
<!-- Generator: Adobe Illustrator 19.0.0, SVG Export Plug-In . SVG Version: 6.00 Build 0)  -->
<svg version="1.1" id="Layer_1" xmlns="http://www.w3.org/2000/svg" xmlns:xlink="http://www.w3.org/1999/xlink" x="0px" y="0px"
	 viewBox="0 0 512 512" style="enable-background:new 0 0 512 512;" xml:space="preserve">
<circle style="fill:#515262;" cx="256" cy="256" r="248"/>
<circle style="fill:#EFF2FA;" cx="256" cy="256" r="153"/>
<path style="fill:#515262;" d="M96.629,163.987l-55.433-32.004C20.088,168.465,8,210.82,8,256h64
	C72,222.479,80.968,191.055,96.629,163.987z"/>
<path style="fill:#EFF2FA;" d="M163.987,96.629l-32.004-55.434C94.35,62.971,62.971,94.35,41.196,131.983l55.433,32.004
	C112.785,136.065,136.065,112.785,163.987,96.629z"/>
<path style="fill:#515262;" d="M256,72V8c-45.181,0-87.535,12.087-124.017,33.196l32.004,55.434C191.055,80.969,222.479,72,256,72z"
	/>
<path style="fill:#EFF2FA;" d="M440,256h64c0-45.18-12.087-87.535-33.196-124.017l-55.433,32.004
	C431.032,191.055,440,222.479,440,256z"/>
<path style="fill:#515262;" d="M415.371,163.987l55.433-32.004c-21.774-37.633-53.153-69.012-90.787-90.787l-32.004,55.433
	C375.935,112.785,399.215,136.065,415.371,163.987z"/>
<g>
	<path style="fill:#EFF2FA;" d="M348.013,96.629l32.004-55.433C343.535,20.088,301.181,8,256,8v64
		C289.521,72,320.945,80.969,348.013,96.629z"/>
	<path style="fill:#EFF2FA;" d="M72,256H8c0,45.18,12.088,87.535,33.196,124.018l55.433-32.005C80.968,320.945,72,289.521,72,256z"
		/>
	<path style="fill:#EFF2FA;" d="M348.013,415.371l32.004,55.433c37.633-21.774,69.012-53.153,90.787-90.786l-55.433-32.005
		C399.215,375.935,375.935,399.215,348.013,415.371z"/>
</g>
<g>
	<path style="fill:#515262;" d="M96.629,348.013l-55.433,32.005c21.774,37.633,53.153,69.012,90.787,90.786l32.004-55.433
		C136.065,399.215,112.785,375.935,96.629,348.013z"/>
	<path style="fill:#515262;" d="M440,256c0,33.521-8.968,64.945-24.629,92.013l55.433,32.005C491.913,343.535,504,301.18,504,256
		H440z"/>
	<path style="fill:#515262;" d="M256,440v64c45.181,0,87.535-12.088,124.017-33.196l-32.004-55.433
		C320.945,431.032,289.521,440,256,440z"/>
</g>
<g>
	<path style="fill:#EFF2FA;" d="M163.987,415.371l-32.004,55.433C168.465,491.913,210.82,504,256,504v-64
		C222.479,440,191.055,431.032,163.987,415.371z"/>
	<path style="fill:#EFF2FA;" d="M397.278,197.661c-5.033-12.173-11.842-23.87-20.236-34.766l-3.429-4.452l23.043-13.303l2.617,3.483
		c8.852,11.781,16.101,24.182,21.545,36.859l1.725,4.015l-23.121,13.349L397.278,197.661z"/>
	<path style="fill:#EFF2FA;" d="M395.342,151.578l-14.403,8.315c8.429,10.941,15.532,22.942,20.885,35.889l14.477-8.358
		C410.781,174.575,403.64,162.622,395.342,151.578z"/>
	<path style="fill:#EFF2FA;" d="M349.105,134.958c-10.896-8.395-22.593-15.203-34.766-20.236l-5.185-2.144l13.348-23.121
		l4.015,1.725c12.677,5.444,25.078,12.693,36.859,21.545l3.483,2.617l-13.303,23.043L349.105,134.958z"/>
	<path style="fill:#EFF2FA;" d="M316.218,110.177c12.946,5.353,24.947,12.456,35.889,20.884l8.315-14.403
		c-11.044-8.298-22.997-15.439-35.846-20.958L316.218,110.177z"/>
	<path style="fill:#EFF2FA;" d="M276.118,104.613c-7.657-1.009-14.05-1.479-20.118-1.479s-12.461,0.47-20.118,1.479l-5.561,0.733
		v-26.75l4.335-0.517c7.835-0.936,14.816-1.39,21.344-1.39c6.528,0,13.509,0.454,21.344,1.39l4.335,0.517v26.75L276.118,104.613z"/>
	<path style="fill:#EFF2FA;" d="M235.239,82.962v16.775c6.811-0.897,13.706-1.521,20.761-1.521c7.055,0,13.951,0.624,20.761,1.521
		V82.962c-6.821-0.814-13.724-1.354-20.761-1.354S242.061,82.147,235.239,82.962z"/>
	<path style="fill:#EFF2FA;" d="M406.654,281.679l0.733-5.561c1.009-7.657,1.479-14.05,1.479-20.118s-0.47-12.461-1.479-20.118
		l-0.733-5.561h26.75l0.517,4.335c0.936,7.835,1.39,14.816,1.39,21.344c0,6.529-0.455,13.511-1.39,21.344l-0.518,4.335H406.654z"/>
	<path style="fill:#EFF2FA;" d="M413.784,256c0,7.056-0.624,13.951-1.521,20.761h16.775c0.814-6.821,1.354-13.724,1.354-20.761
		s-0.54-13.939-1.354-20.761h-16.775C413.16,242.049,413.784,248.944,413.784,256z"/>
	<path style="fill:#EFF2FA;" d="M78.597,281.679l-0.518-4.335c-0.935-7.833-1.39-14.814-1.39-21.344
		c0-6.527,0.454-13.509,1.39-21.344l0.517-4.335h26.75l-0.733,5.561c-1.009,7.657-1.479,14.05-1.479,20.118
		s0.47,12.461,1.479,20.118l0.733,5.561L78.597,281.679L78.597,281.679z"/>
	<path style="fill:#EFF2FA;" d="M98.216,256c0-7.056,0.624-13.951,1.521-20.761H82.962c-0.814,6.822-1.354,13.725-1.354,20.761
		c0,7.037,0.54,13.939,1.354,20.761h16.775C98.84,269.951,98.216,263.056,98.216,256z"/>
	<path style="fill:#EFF2FA;" d="M145.141,115.344l3.483-2.617c11.781-8.852,24.182-16.101,36.859-21.545l4.015-1.725l13.348,23.121
		l-5.185,2.144c-12.173,5.033-23.87,11.841-34.766,20.236l-4.452,3.429L145.141,115.344z"/>
	<path style="fill:#EFF2FA;" d="M159.894,131.062c10.941-8.429,22.942-15.532,35.889-20.884L187.424,95.7
		c-12.849,5.519-24.802,12.66-35.846,20.958L159.894,131.062z"/>
	<path style="fill:#EFF2FA;" d="M373.614,353.556l3.429-4.451c8.394-10.896,15.202-22.592,20.235-34.766l2.144-5.186l23.121,13.349
		l-1.725,4.015c-5.443,12.675-12.691,25.076-21.545,36.859l-2.617,3.483L373.614,353.556z"/>
	<path style="fill:#EFF2FA;" d="M416.3,324.576l-14.477-8.358c-5.353,12.946-12.455,24.947-20.885,35.888l14.403,8.316
		C403.64,349.378,410.782,337.425,416.3,324.576z"/>
	<path style="fill:#EFF2FA;" d="M256,435.311c-6.527,0-13.509-0.454-21.344-1.39l-4.335-0.517v-26.75l5.561,0.733
		c7.657,1.009,14.05,1.479,20.118,1.479s12.461-0.47,20.118-1.479l5.561-0.733v26.75l-4.335,0.517
		C269.509,434.856,262.527,435.311,256,435.311z"/>
	<path style="fill:#EFF2FA;" d="M276.761,429.039v-16.776c-6.81,0.897-13.705,1.521-20.761,1.521s-13.951-0.624-20.761-1.521v16.776
		c6.822,0.814,13.724,1.354,20.761,1.354S269.939,429.853,276.761,429.039z"/>
	<path style="fill:#EFF2FA;" d="M309.154,399.422l5.185-2.144c12.173-5.033,23.87-11.842,34.766-20.236l4.452-3.429l13.303,23.043
		l-3.483,2.617c-11.781,8.852-24.183,16.101-36.859,21.545l-4.015,1.725L309.154,399.422z"/>
	<path style="fill:#EFF2FA;" d="M352.106,380.938c-10.941,8.429-22.942,15.532-35.889,20.884l8.358,14.477
		c12.849-5.518,24.802-12.66,35.846-20.958L352.106,380.938z"/>
	<path style="fill:#EFF2FA;" d="M185.483,420.818c-12.676-5.444-25.078-12.693-36.859-21.545l-3.483-2.617l13.303-23.043
		l4.452,3.429c10.896,8.394,22.593,15.203,34.766,20.236l5.185,2.144l-13.348,23.121L185.483,420.818z"/>
	<path style="fill:#EFF2FA;" d="M195.782,401.823c-12.946-5.352-24.947-12.456-35.889-20.884l-8.315,14.403
		c11.044,8.298,22.997,15.44,35.846,20.958L195.782,401.823z"/>
	<path style="fill:#EFF2FA;" d="M112.727,363.375c-8.854-11.783-16.102-24.184-21.545-36.859l-1.725-4.015l23.121-13.349
		l2.144,5.186c5.033,12.173,11.841,23.87,20.235,34.766l3.429,4.451l-23.042,13.303L112.727,363.375z"/>
	<path style="fill:#EFF2FA;" d="M131.062,352.106c-8.43-10.941-15.532-22.942-20.885-35.888L95.7,324.576
		c5.518,12.849,12.66,24.802,20.958,35.846L131.062,352.106z"/>
	<path style="fill:#EFF2FA;" d="M89.457,189.498l1.725-4.015c5.444-12.677,12.693-25.078,21.545-36.859l2.617-3.483l23.043,13.303
		l-3.429,4.452c-8.395,10.896-15.203,22.592-20.236,34.766l-2.144,5.186L89.457,189.498z"/>
	<path style="fill:#EFF2FA;" d="M95.7,187.424l14.477,8.358c5.353-12.946,12.456-24.947,20.885-35.889l-14.403-8.315
		C108.36,162.622,101.219,174.575,95.7,187.424z"/>
</g>
<path style="fill:#515262;" d="M320.066,235.537c-18.092-1.023-33.926,8.811-41.521,23.487c-1.677,3.24-4.472,5.786-7.976,6.928
	c-0.043,0.014-0.087,0.028-0.13,0.042c-2.979,0.968-5.956-1.535-5.488-4.592c1.025-6.716,2.638-13.244,4.774-19.535
	c1.16-3.417,3.697-6.159,6.957-7.79c14.932-7.47,24.944-23.1,23.905-40.96c-1.271-21.834-19.7-39.671-41.871-40.552
	c-24.99-0.993-45.565,18.68-45.565,43.09c0,16.815,9.783,31.345,24.031,38.449c3.231,1.611,5.738,4.333,6.889,7.717
	c2.145,6.306,3.762,12.849,4.79,19.582c0.467,3.057-2.509,5.56-5.488,4.592c-0.045-0.015-0.089-0.029-0.134-0.044
	c-3.501-1.142-6.294-3.686-7.969-6.923c-7.593-14.678-23.429-24.514-41.522-23.491c-22.153,1.252-40.25,19.417-41.144,41.27
	c-1.007,24.63,18.953,44.909,43.718,44.909c17.005,0,31.705-9.579,38.939-23.548c1.683-3.25,4.49-5.803,8.004-6.948
	c0.041-0.014,0.082-0.027,0.123-0.04c2.981-0.968,5.949,1.537,5.488,4.597c-3.089,20.487-11.609,39.224-24.071,54.752
	c-2.493,3.107-0.184,7.678,3.834,7.678h56.533c4.019,0,6.328-4.571,3.835-7.678c-12.461-15.529-20.982-34.265-24.071-54.752
	c-0.461-3.06,2.507-5.564,5.488-4.597c0.041,0.013,0.082,0.026,0.123,0.04c3.515,1.146,6.321,3.698,8.004,6.948
	c7.233,13.969,21.934,23.548,38.938,23.548c24.766,0,44.726-20.279,43.718-44.91C360.316,254.954,342.219,236.789,320.066,235.537z"
	/>
<g>
	<path style="fill:#2D2B29;" d="M437.02,74.98C388.667,26.628,324.38,0,256,0S123.333,26.628,74.98,74.98S0,187.62,0,256
		s26.628,132.668,74.98,181.02C123.333,485.372,187.62,512,256,512s132.667-26.628,181.02-74.98C485.372,388.668,512,324.38,512,256
		S485.372,123.333,437.02,74.98z M467.689,368.981L426.1,344.97c12.809-24.39,20.521-51.852,21.721-80.97h48.032
		C494.606,301.847,484.559,337.501,467.689,368.981z M248,447.821v48.032c-37.847-1.247-73.501-11.293-104.981-28.163l24.012-41.59
		C191.42,438.908,218.882,446.621,248,447.821z M264,447.821c29.118-1.2,56.58-8.913,80.97-21.721l24.012,41.59
		c-31.48,16.87-67.135,26.917-104.981,28.163L264,447.821L264,447.821z M256,432c-97.047,0-176-78.953-176-176S158.953,80,256,80
		s176,78.953,176,176S353.047,432,256,432z M16.147,264h48.032c1.2,29.118,8.913,56.58,21.721,80.97l-41.59,24.012
		C27.441,337.501,17.394,301.847,16.147,264z M44.311,143.019L85.9,167.03C73.092,191.42,65.379,218.882,64.179,248H16.147
		C17.394,210.153,27.441,174.499,44.311,143.019z M264,64.179V16.147c37.847,1.246,73.501,11.293,104.981,28.163L344.97,85.9
		C320.58,73.092,293.118,65.379,264,64.179z M248,64.179c-29.118,1.2-56.58,8.913-80.97,21.721l-24.012-41.59
		c31.48-16.87,67.135-26.917,104.981-28.163L248,64.179L248,64.179z M447.821,248c-1.2-29.118-8.913-56.58-21.721-80.97
		l41.59-24.012c16.87,31.48,26.917,67.135,28.163,104.981L447.821,248L447.821,248z M459.663,129.178l-41.581,24.007
		c-15.168-23.827-35.439-44.099-59.267-59.267l24.007-41.581C413.904,71.762,440.238,98.096,459.663,129.178z M129.178,52.337
		l24.007,41.581c-23.827,15.168-44.099,35.439-59.267,59.267l-41.581-24.007C71.762,98.096,98.096,71.762,129.178,52.337z
		 M52.337,382.822l41.581-24.007c15.168,23.827,35.439,44.099,59.267,59.267l-24.007,41.581
		C98.096,440.238,71.762,413.904,52.337,382.822z M382.822,459.663l-24.007-41.581c23.827-15.168,44.099-35.439,59.267-59.267
		l41.581,24.007C440.238,413.904,413.904,440.238,382.822,459.663z"/>
	<path style="fill:#2D2B29;" d="M362.101,158.641c1.578,1.719,3.733,2.59,5.895,2.59c1.933,0,3.872-0.697,5.408-2.106
		c3.255-2.988,3.471-8.049,0.483-11.304c-3.086-3.361-6.354-6.629-9.714-9.713c-3.254-2.987-8.315-2.771-11.303,0.484
		c-2.988,3.255-2.771,8.315,0.483,11.303C356.379,152.671,359.322,155.614,362.101,158.641z"/>
	<path style="fill:#2D2B29;" d="M112,256c0-79.402,64.598-144,144-144c23.799,0,47.377,5.925,68.187,17.134
		c3.89,2.095,8.742,0.641,10.837-3.249c2.095-3.891,0.64-8.742-3.25-10.838C308.641,102.586,282.439,96,256,96
		c-88.224,0-160,71.776-160,160c0,36.744,12.766,72.633,35.947,101.056c1.582,1.939,3.883,2.944,6.205,2.944
		c1.777,0,3.566-0.59,5.051-1.801c3.424-2.792,3.936-7.832,1.144-11.256C123.487,321.368,112,289.07,112,256z"/>
	<path style="fill:#2D2B29;" d="M396.937,180.196c-2.096-3.89-6.947-5.343-10.837-3.247c-3.889,2.096-5.343,6.948-3.247,10.837
		C394.07,208.602,400,232.19,400,256c0,79.402-64.598,144-144,144c-33.071,0-65.37-11.488-90.946-32.349
		c-3.423-2.792-8.463-2.281-11.256,1.144c-2.792,3.424-2.281,8.463,1.144,11.256C183.365,403.233,219.254,416,256,416
		c88.224,0,160-71.776,160-160C416,229.549,409.408,203.336,396.937,180.196z"/>
	<path style="fill:#2D2B29;" d="M316.398,331.09c14.183,0,27.406-5.635,37.233-15.866c9.823-10.227,14.917-23.68,14.345-37.881
		c-1.057-26.204-22.384-47.906-48.553-49.407c-17.376-0.997-33.886,6.829-44.159,20.414c0.348-1.167,0.715-2.33,1.102-3.486
		c0.462-1.379,1.516-2.545,2.968-3.282c18.306-9.291,29.375-28.534,28.2-49.023c-1.501-26.169-23.203-47.497-49.407-48.553
		c-14.21-0.563-27.655,4.522-37.881,14.345c-10.232,9.827-15.867,23.051-15.867,37.233c0,19.547,10.863,37.185,28.349,46.03
		c1.41,0.714,2.437,1.852,2.891,3.207c0.392,1.17,0.765,2.347,1.117,3.53c-10.273-13.584-26.77-21.412-44.159-20.414
		c-26.17,1.501-47.497,23.203-48.553,49.407c-0.572,14.201,4.522,27.654,14.345,37.881c9.827,10.231,23.05,15.866,37.233,15.866
		c16.411,0,31.499-7.674,41.147-20.497c-4.859,16.299-13.511,31.435-25.283,43.919c-2.19,2.323-2.79,5.726-1.524,8.658
		c1.265,2.932,4.152,4.83,7.345,4.83h77.426c3.193,0,6.08-1.898,7.345-4.83c1.265-2.932,0.666-6.335-1.524-8.658
		c-11.771-12.484-20.423-27.62-25.283-43.919C284.899,323.416,299.987,331.09,316.398,331.09z M220.379,195.583
		c0-9.787,3.889-18.912,10.95-25.694c6.698-6.434,15.406-9.927,24.663-9.927c0.495,0,0.993,0.01,1.491,0.03
		c18.074,0.729,33.042,15.436,34.078,33.482c0.811,14.144-6.83,27.426-19.468,33.84c-5.223,2.651-9.094,7.08-10.899,12.471
		c-2.382,7.117-4.123,14.442-5.193,21.853c-1.074-7.427-2.82-14.771-5.21-21.903c-1.8-5.37-5.649-9.773-10.839-12.399
		C227.879,221.229,220.379,209.063,220.379,195.583z M277.853,352h-43.705c11.466-16.193,19.019-35,21.853-54.636
		C258.834,317,266.387,335.807,277.853,352z M272.112,284.648c-2.192-0.725-4.475-1.412-6.785-2.042
		c-0.694-0.189-1.401-0.282-2.104-0.282c-1.859,0-3.685,0.648-5.143,1.872c-0.891,0.747-1.594,1.667-2.08,2.687
		c-0.486-1.02-1.19-1.94-2.08-2.687c-2.009-1.686-4.718-2.279-7.247-1.59c-2.31,0.63-4.593,1.317-6.786,2.042
		c-5.418,1.792-9.89,5.693-12.59,10.984c-6.125,12.002-18.27,19.457-31.695,19.457c-9.787,0-18.912-3.889-25.694-10.95
		c-6.777-7.056-10.292-16.344-9.896-26.153c0.728-18.074,15.435-33.043,33.482-34.078c14.112-0.816,27.386,6.809,33.81,19.41
		c2.691,5.279,7.15,9.172,12.555,10.961c2.194,0.726,4.485,1.416,6.81,2.051c2.532,0.689,5.243,0.096,7.253-1.592
		c0.89-0.748,1.593-1.668,2.078-2.689c0.486,1.021,1.188,1.941,2.079,2.689c2.01,1.688,4.719,2.284,7.252,1.592
		c2.326-0.635,4.615-1.324,6.806-2.049c5.407-1.788,9.868-5.684,12.562-10.966c6.424-12.598,19.693-20.213,33.809-19.406
		c18.046,1.035,32.753,16.004,33.482,34.078c0.396,9.809-3.12,19.097-9.897,26.153c-6.782,7.061-15.907,10.949-25.693,10.949
		c-13.425,0-25.57-7.455-31.695-19.457C282.004,290.343,277.532,286.441,272.112,284.648z"/>
</g>
<g>
</g>
<g>
</g>
<g>
</g>
<g>
</g>
<g>
</g>
<g>
</g>
<g>
</g>
<g>
</g>
<g>
</g>
<g>
</g>
<g>
</g>
<g>
</g>
<g>
</g>
<g>
</g>
<g>
</g>
</svg>
